<svg width="321" height="21" viewBox="0 0 321 21" fill="none" xmlns="http://www.w3.org/2000/svg">
<path d="M3.00451 3.76611H16.9176C17.8741 3.76611 18.6567 4.54872 18.6567 5.50524V15.94C18.6567 16.8965 17.8741 17.6792 16.9176 17.6792H3.00451C2.04799 17.6792 1.26538 16.8965 1.26538 15.94V5.50524C1.26538 4.54872 2.04799 3.76611 3.00451 3.76611Z" stroke="#6F25F5" stroke-width="1.73913" stroke-linecap="round" stroke-linejoin="round"/>
<path d="M18.6567 5.50537L9.96103 11.5923L1.26538 5.50537" stroke="#6F25F5" stroke-width="1.73913" stroke-linecap="round" stroke-linejoin="round"/>
<path d="M77.7656 2.40478L60.9017 9.32327C59.8894 9.73858 59.9555 11.1939 61.0013 11.5157L63.6459 12.3294C64.8002 12.6846 66.0525 12.51 67.0657 11.8528L74.7241 6.88528C74.9018 6.77003 75.0931 7.01082 74.9406 7.15782L69.1106 12.7796C68.582 13.2893 68.6507 14.155 69.2532 14.5749L75.3989 18.8582C76.4619 19.5991 77.9332 18.9668 78.1273 17.6858L80.1579 4.28428C80.3614 2.94115 79.0224 1.88916 77.7656 2.40478Z" fill="#6F25F5"/>
<path d="M125.081 20.0114V7.58496H121.216V20.0114H125.081ZM123.128 5.92256C124.375 5.92256 125.372 4.88356 125.372 3.63676C125.372 2.43152 124.375 1.43408 123.128 1.43408C121.922 1.43408 120.925 2.43152 120.925 3.63676C120.925 4.88356 121.922 5.92256 123.128 5.92256ZM139.502 20.0114H139.544V13.1956C139.544 9.87076 138.796 7.29404 134.889 7.29404C133.019 7.29404 131.772 8.33304 131.232 9.28892H131.19V7.58496H127.492V20.0114H131.357V13.8605C131.357 12.2397 131.648 10.702 133.642 10.702C135.637 10.702 135.679 12.5306 135.679 13.9852V20.0114H139.502Z" fill="#6F25F5"/>
<path d="M198.014 6.78124C198.763 6.2155 199.437 5.53661 199.961 4.74457C199.287 5.0463 198.501 5.2726 197.715 5.34803C198.538 4.85772 199.137 4.1034 199.437 3.1605C198.688 3.61309 197.827 3.95254 196.966 4.14112C196.217 3.34908 195.206 2.89648 194.083 2.89648C191.912 2.89648 190.152 4.66914 190.152 6.85668C190.152 7.1584 190.19 7.46013 190.265 7.76186C187.008 7.57328 184.088 5.98921 182.141 3.61309C181.804 4.17883 181.617 4.85772 181.617 5.61204C181.617 6.96982 182.291 8.17674 183.376 8.89334C182.74 8.85562 182.103 8.70476 181.579 8.40303V8.44074C181.579 10.3643 182.927 11.9483 184.724 12.3255C184.425 12.4009 184.05 12.4764 183.713 12.4764C183.451 12.4764 183.227 12.4387 182.964 12.4009C183.451 13.985 184.911 15.1165 186.633 15.1542C185.286 16.2102 183.601 16.8514 181.766 16.8514C181.43 16.8514 181.13 16.8137 180.831 16.776C182.553 17.9074 184.612 18.5487 186.858 18.5487C194.083 18.5487 198.014 12.5518 198.014 7.30927C198.014 7.12068 198.014 6.96982 198.014 6.78124Z" fill="#6F25F5"/>
<path d="M242.902 6.23844V14.7305C242.942 15.0083 242.863 15.3257 242.666 15.5638L240.655 17.9845V18.3019H246.333V17.9845L244.322 15.5638C244.085 15.3257 244.007 15.0083 244.046 14.7305V7.38923L249.015 18.3416H249.607L253.905 7.38923V16.0797C253.905 16.3178 253.905 16.3575 253.747 16.5162L252.209 18.0242V18.3416H259.702V18.0242L258.204 16.5559C258.085 16.4766 258.006 16.2781 258.046 16.1194V5.32573C258.006 5.16701 258.085 5.00828 258.204 4.92892L259.702 3.46066V3.10352H254.457L250.671 12.548L246.412 3.10352H240.891V3.46066L242.666 5.60352C242.824 5.76225 242.942 6.00034 242.902 6.23844Z" fill="#6F25F5"/>
<path fill-rule="evenodd" clip-rule="evenodd" d="M310.194 20.7227C315.71 20.7144 320.178 16.2404 320.178 10.7227C320.178 5.19981 315.701 0.722656 310.178 0.722656C304.656 0.722656 300.178 5.19981 300.178 10.7227C300.178 16.2404 304.647 20.7144 310.163 20.7227C310.168 20.7227 310.173 20.7227 310.178 20.7227M307.903 3.05088C304.902 3.93956 302.637 6.541 302.24 9.72266H305.632C305.84 7.34079 306.623 5.05245 307.903 3.05088ZM312.454 3.05088C313.734 5.05245 314.517 7.34079 314.725 9.72266H318.117C317.72 6.541 315.455 3.93956 312.454 3.05088ZM312.716 9.72266C312.479 7.38273 311.601 5.15379 310.178 3.28265C308.756 5.15379 307.877 7.38273 307.64 9.72266H312.716ZM307.64 11.7227H312.716C312.48 14.0627 311.601 16.2917 310.178 18.1629C308.756 16.2917 307.877 14.0627 307.64 11.7227ZM305.632 11.7227H302.24C302.637 14.9043 304.902 17.5057 307.903 18.3944C306.623 16.3929 305.84 14.1045 305.632 11.7227ZM312.454 18.3944C313.734 16.3929 314.517 14.1045 314.725 11.7227H318.117C317.72 14.9043 315.455 17.5057 312.454 18.3944Z" fill="#6F25F5"/>
</svg>
