<svg width="204" height="25" viewBox="0 0 204 25" fill="none" xmlns="http://www.w3.org/2000/svg">
<path d="M5.59247 12.7227L2.89847 15.4177L0.178467 12.7227L2.89747 10.0037L5.59247 12.7227ZM12.1785 6.13666L16.8185 10.7767L19.5385 8.05866L12.1785 0.722656L4.81847 8.08266L7.53847 10.8007L12.1785 6.13666ZM21.4595 10.0037L18.7645 12.7227L21.4835 15.4417L24.2015 12.7227L21.4595 10.0037ZM12.1785 19.3087L7.53847 14.6447L4.81847 17.3637L12.1785 24.7227L19.5385 17.3627L16.8185 14.6447L12.1785 19.3087ZM12.1785 15.4187L14.8975 12.6987L12.1785 10.0047L9.45947 12.7227L12.1785 15.4177V15.4187ZM40.7725 15.6987V15.6527C40.7725 13.8947 39.8345 13.0037 38.3115 12.4177C39.2485 11.9027 40.0455 11.0577 40.0455 9.58166V9.53566C40.0455 7.47266 38.3815 6.13666 35.7095 6.13666H29.5925V19.2857H35.8505C38.8265 19.3087 40.7725 18.0897 40.7725 15.6997V15.6987ZM37.1625 10.0747C37.1625 11.0587 36.3655 11.4567 35.0765 11.4567H32.4055V8.66766H35.2645C36.4835 8.66766 37.1625 9.15966 37.1625 10.0277V10.0747ZM37.8895 15.3247C37.8895 16.3087 37.1165 16.7547 35.8495 16.7547H32.4055V13.8707H35.7565C37.2335 13.8707 37.8895 14.4107 37.8895 15.3007V15.3247ZM46.8425 19.3087V6.13666H43.9365V19.2857H46.8425V19.3087ZM62.4055 19.3087V6.13666H59.5455V14.2467L53.3815 6.13666H50.7095V19.2857H53.5695V10.9417L59.9445 19.3087H62.4045H62.4055ZM78.4355 19.3087L72.7885 6.06666H70.1175L64.4685 19.3087H67.4455L68.6405 16.3557H74.1955L75.3905 19.3087H78.4375H78.4355ZM73.1625 13.8007H69.6705L71.4285 9.53566L73.1625 13.8007ZM92.2415 19.3087V6.13666H89.3815V14.2467L83.2175 6.13666H80.5455V19.2857H83.4055V10.9417L89.7805 19.3087H92.2405H92.2415ZM107.17 17.1757L105.319 15.3247C104.287 16.2617 103.373 16.8707 101.85 16.8707C99.6005 16.8707 98.0305 14.9957 98.0305 12.7457V12.6757C98.0305 10.4257 99.6235 8.57466 101.85 8.57466C103.162 8.57466 104.194 9.13666 105.225 10.0507L107.076 7.91766C105.858 6.72266 104.381 5.87866 101.897 5.87866C97.8665 5.87866 95.0305 8.94866 95.0305 12.6757V12.7227C95.0305 16.4957 97.9125 19.4957 101.78 19.4957C104.311 19.5197 105.811 18.6287 107.17 17.1757ZM119.522 19.3087V16.7307H112.373V13.9647H118.584V11.3867H112.373V8.71466H119.428V6.13666H109.514V19.2857H119.522V19.3087Z" fill="black"/>
<path d="M133.452 16.2927C132.806 16.2927 132.216 16.1427 131.682 15.8427C131.149 15.536 130.726 15.1127 130.412 14.5727C130.106 14.026 129.952 13.4127 129.952 12.7327C129.952 12.0527 130.106 11.4427 130.412 10.9027C130.726 10.356 131.149 9.93266 131.682 9.63266C132.216 9.32599 132.806 9.17266 133.452 9.17266C134.106 9.17266 134.699 9.32599 135.232 9.63266C135.766 9.93266 136.186 10.3527 136.492 10.8927C136.799 11.4327 136.952 12.046 136.952 12.7327C136.952 13.4193 136.799 14.0327 136.492 14.5727C136.186 15.1127 135.766 15.536 135.232 15.8427C134.699 16.1427 134.106 16.2927 133.452 16.2927ZM133.452 15.5027C133.939 15.5027 134.376 15.3893 134.762 15.1627C135.156 14.936 135.462 14.6127 135.682 14.1927C135.909 13.7727 136.022 13.286 136.022 12.7327C136.022 12.1727 135.909 11.686 135.682 11.2727C135.462 10.8527 135.159 10.5293 134.772 10.3027C134.386 10.076 133.946 9.96266 133.452 9.96266C132.959 9.96266 132.519 10.076 132.132 10.3027C131.746 10.5293 131.439 10.8527 131.212 11.2727C130.992 11.686 130.882 12.1727 130.882 12.7327C130.882 13.286 130.992 13.7727 131.212 14.1927C131.439 14.6127 131.746 14.936 132.132 15.1627C132.526 15.3893 132.966 15.5027 133.452 15.5027ZM140.384 11.4927H139.234V16.2227H138.324V11.4927H137.614V10.7427H138.324V10.3527C138.324 9.73932 138.48 9.29266 138.794 9.01266C139.114 8.72599 139.624 8.58266 140.324 8.58266V9.34266C139.924 9.34266 139.64 9.42266 139.474 9.58266C139.314 9.73599 139.234 9.99266 139.234 10.3527V10.7427H140.384V11.4927ZM143.675 11.4927H142.525V16.2227H141.615V11.4927H140.905V10.7427H141.615V10.3527C141.615 9.73932 141.771 9.29266 142.085 9.01266C142.405 8.72599 142.915 8.58266 143.615 8.58266V9.34266C143.215 9.34266 142.931 9.42266 142.765 9.58266C142.605 9.73599 142.525 9.99266 142.525 10.3527V10.7427H143.675V11.4927ZM145.206 9.85266C145.032 9.85266 144.886 9.79266 144.766 9.67266C144.646 9.55266 144.586 9.40599 144.586 9.23266C144.586 9.05932 144.646 8.91266 144.766 8.79266C144.886 8.67266 145.032 8.61266 145.206 8.61266C145.372 8.61266 145.512 8.67266 145.626 8.79266C145.746 8.91266 145.806 9.05932 145.806 9.23266C145.806 9.40599 145.746 9.55266 145.626 9.67266C145.512 9.79266 145.372 9.85266 145.206 9.85266ZM145.646 10.7427V16.2227H144.736V10.7427H145.646ZM146.857 13.4727C146.857 12.906 146.97 12.4127 147.197 11.9927C147.423 11.566 147.737 11.236 148.137 11.0027C148.543 10.7693 149.007 10.6527 149.527 10.6527C150.2 10.6527 150.753 10.816 151.187 11.1427C151.627 11.4693 151.917 11.9227 152.057 12.5027H151.077C150.983 12.1693 150.8 11.906 150.527 11.7127C150.26 11.5193 149.927 11.4227 149.527 11.4227C149.007 11.4227 148.587 11.6027 148.267 11.9627C147.947 12.316 147.787 12.8193 147.787 13.4727C147.787 14.1327 147.947 14.6427 148.267 15.0027C148.587 15.3627 149.007 15.5427 149.527 15.5427C149.927 15.5427 150.26 15.4493 150.527 15.2627C150.793 15.076 150.977 14.8093 151.077 14.4627H152.057C151.91 15.0227 151.617 15.4727 151.177 15.8127C150.737 16.146 150.187 16.3127 149.527 16.3127C149.007 16.3127 148.543 16.196 148.137 15.9627C147.737 15.7293 147.423 15.3993 147.197 14.9727C146.97 14.546 146.857 14.046 146.857 13.4727ZM153.741 9.85266C153.568 9.85266 153.421 9.79266 153.301 9.67266C153.181 9.55266 153.121 9.40599 153.121 9.23266C153.121 9.05932 153.181 8.91266 153.301 8.79266C153.421 8.67266 153.568 8.61266 153.741 8.61266C153.908 8.61266 154.048 8.67266 154.161 8.79266C154.281 8.91266 154.341 9.05932 154.341 9.23266C154.341 9.40599 154.281 9.55266 154.161 9.67266C154.048 9.79266 153.908 9.85266 153.741 9.85266ZM154.181 10.7427V16.2227H153.271V10.7427H154.181ZM155.392 13.4627C155.392 12.9027 155.505 12.4127 155.732 11.9927C155.959 11.566 156.269 11.236 156.662 11.0027C157.062 10.7693 157.505 10.6527 157.992 10.6527C158.472 10.6527 158.889 10.756 159.242 10.9627C159.595 11.1693 159.859 11.4293 160.032 11.7427V10.7427H160.952V16.2227H160.032V15.2027C159.852 15.5227 159.582 15.7893 159.222 16.0027C158.869 16.2093 158.455 16.3127 157.982 16.3127C157.495 16.3127 157.055 16.1927 156.662 15.9527C156.269 15.7127 155.959 15.376 155.732 14.9427C155.505 14.5093 155.392 14.016 155.392 13.4627ZM160.032 13.4727C160.032 13.0593 159.949 12.6993 159.782 12.3927C159.615 12.086 159.389 11.8527 159.102 11.6927C158.822 11.526 158.512 11.4427 158.172 11.4427C157.832 11.4427 157.522 11.5227 157.242 11.6827C156.962 11.8427 156.739 12.076 156.572 12.3827C156.405 12.6893 156.322 13.0493 156.322 13.4627C156.322 13.8827 156.405 14.2493 156.572 14.5627C156.739 14.8693 156.962 15.106 157.242 15.2727C157.522 15.4327 157.832 15.5127 158.172 15.5127C158.512 15.5127 158.822 15.4327 159.102 15.2727C159.389 15.106 159.615 14.8693 159.782 14.5627C159.949 14.2493 160.032 13.886 160.032 13.4727ZM163.4 8.82266V16.2227H162.49V8.82266H163.4ZM168.527 11.7527C168.707 11.4393 168.973 11.1793 169.327 10.9727C169.687 10.7593 170.103 10.6527 170.577 10.6527C171.063 10.6527 171.503 10.7693 171.897 11.0027C172.297 11.236 172.61 11.566 172.837 11.9927C173.063 12.4127 173.177 12.9027 173.177 13.4627C173.177 14.016 173.063 14.5093 172.837 14.9427C172.61 15.376 172.297 15.7127 171.897 15.9527C171.503 16.1927 171.063 16.3127 170.577 16.3127C170.11 16.3127 169.697 16.2093 169.337 16.0027C168.983 15.7893 168.713 15.526 168.527 15.2127V18.8227H167.617V10.7427H168.527V11.7527ZM172.247 13.4627C172.247 13.0493 172.163 12.6893 171.997 12.3827C171.83 12.076 171.603 11.8427 171.317 11.6827C171.037 11.5227 170.727 11.4427 170.387 11.4427C170.053 11.4427 169.743 11.526 169.457 11.6927C169.177 11.8527 168.95 12.0893 168.777 12.4027C168.61 12.7093 168.527 13.066 168.527 13.4727C168.527 13.886 168.61 14.2493 168.777 14.5627C168.95 14.8693 169.177 15.106 169.457 15.2727C169.743 15.4327 170.053 15.5127 170.387 15.5127C170.727 15.5127 171.037 15.4327 171.317 15.2727C171.603 15.106 171.83 14.8693 171.997 14.5627C172.163 14.2493 172.247 13.8827 172.247 13.4627ZM174.034 13.4627C174.034 12.9027 174.148 12.4127 174.374 11.9927C174.601 11.566 174.911 11.236 175.304 11.0027C175.704 10.7693 176.148 10.6527 176.634 10.6527C177.114 10.6527 177.531 10.756 177.884 10.9627C178.238 11.1693 178.501 11.4293 178.674 11.7427V10.7427H179.594V16.2227H178.674V15.2027C178.494 15.5227 178.224 15.7893 177.864 16.0027C177.511 16.2093 177.098 16.3127 176.624 16.3127C176.138 16.3127 175.698 16.1927 175.304 15.9527C174.911 15.7127 174.601 15.376 174.374 14.9427C174.148 14.5093 174.034 14.016 174.034 13.4627ZM178.674 13.4727C178.674 13.0593 178.591 12.6993 178.424 12.3927C178.258 12.086 178.031 11.8527 177.744 11.6927C177.464 11.526 177.154 11.4427 176.814 11.4427C176.474 11.4427 176.164 11.5227 175.884 11.6827C175.604 11.8427 175.381 12.076 175.214 12.3827C175.048 12.6893 174.964 13.0493 174.964 13.4627C174.964 13.8827 175.048 14.2493 175.214 14.5627C175.381 14.8693 175.604 15.106 175.884 15.2727C176.164 15.4327 176.474 15.5127 176.814 15.5127C177.154 15.5127 177.464 15.4327 177.744 15.2727C178.031 15.106 178.258 14.8693 178.424 14.5627C178.591 14.2493 178.674 13.886 178.674 13.4727ZM182.042 11.6327C182.202 11.3193 182.429 11.076 182.722 10.9027C183.022 10.7293 183.386 10.6427 183.812 10.6427V11.5827H183.572C182.552 11.5827 182.042 12.136 182.042 13.2427V16.2227H181.132V10.7427H182.042V11.6327ZM185.973 11.4927V14.7227C185.973 14.9893 186.029 15.1793 186.143 15.2927C186.256 15.3993 186.453 15.4527 186.733 15.4527H187.403V16.2227H186.583C186.076 16.2227 185.696 16.106 185.443 15.8727C185.189 15.6393 185.063 15.256 185.063 14.7227V11.4927H184.353V10.7427H185.063V9.36266H185.973V10.7427H187.403V11.4927H185.973ZM191.175 10.6427C191.842 10.6427 192.382 10.846 192.795 11.2527C193.209 11.6527 193.415 12.2327 193.415 12.9927V16.2227H192.515V13.1227C192.515 12.576 192.379 12.1593 192.105 11.8727C191.832 11.5793 191.459 11.4327 190.985 11.4327C190.505 11.4327 190.122 11.5827 189.835 11.8827C189.555 12.1827 189.415 12.6193 189.415 13.1927V16.2227H188.505V10.7427H189.415V11.5227C189.595 11.2427 189.839 11.026 190.145 10.8727C190.459 10.7193 190.802 10.6427 191.175 10.6427ZM199.902 13.2727C199.902 13.446 199.892 13.6293 199.872 13.8227H195.492C195.525 14.3627 195.709 14.786 196.042 15.0927C196.382 15.3927 196.792 15.5427 197.272 15.5427C197.665 15.5427 197.992 15.4527 198.252 15.2727C198.519 15.086 198.705 14.8393 198.812 14.5327H199.792C199.645 15.0593 199.352 15.4893 198.912 15.8227C198.472 16.1493 197.925 16.3127 197.272 16.3127C196.752 16.3127 196.285 16.196 195.872 15.9627C195.465 15.7293 195.145 15.3993 194.912 14.9727C194.679 14.5393 194.562 14.0393 194.562 13.4727C194.562 12.906 194.675 12.4093 194.902 11.9827C195.129 11.556 195.445 11.2293 195.852 11.0027C196.265 10.7693 196.739 10.6527 197.272 10.6527C197.792 10.6527 198.252 10.766 198.652 10.9927C199.052 11.2193 199.359 11.5327 199.572 11.9327C199.792 12.326 199.902 12.7727 199.902 13.2727ZM198.962 13.0827C198.962 12.736 198.885 12.4393 198.732 12.1927C198.579 11.9393 198.369 11.7493 198.102 11.6227C197.842 11.4893 197.552 11.4227 197.232 11.4227C196.772 11.4227 196.379 11.5693 196.052 11.8627C195.732 12.156 195.549 12.5627 195.502 13.0827H198.962ZM202.013 11.6327C202.173 11.3193 202.4 11.076 202.693 10.9027C202.993 10.7293 203.356 10.6427 203.783 10.6427V11.5827H203.543C202.523 11.5827 202.013 12.136 202.013 13.2427V16.2227H201.103V10.7427H202.013V11.6327Z" fill="black"/>
</svg>
