<svg width="154" height="97" viewBox="0 0 154 97" fill="none" xmlns="http://www.w3.org/2000/svg">
<path d="M2.75905 86.3032C0.318273 88.744 0.318273 92.7013 2.75905 95.1421C5.19983 97.5828 9.15711 97.5828 11.5979 95.1421L2.75905 86.3032ZM58.9632 56.5505L55.0589 61.4309L58.9632 56.5505ZM73.7995 68.4195L69.8951 73.2999H69.8951L73.7995 68.4195ZM93.0089 66.7884L88.3376 62.6361L93.0089 66.7884ZM144.85 17.8749C147.143 15.295 146.911 11.3446 144.331 9.05135C141.751 6.75811 137.8 6.99049 135.507 9.57038L144.85 17.8749ZM83.9541 74.0799L84.4828 80.3075H84.4829L83.9541 74.0799ZM49.3109 51.1133L49.6565 57.3538H49.6565L49.3109 51.1133ZM119.178 0.472656C115.727 0.472656 112.928 3.27088 112.928 6.72266C112.928 10.1744 115.727 12.9727 119.178 12.9727V0.472656ZM140.928 34.7227C140.928 38.1745 143.727 40.9727 147.178 40.9727C150.63 40.9727 153.428 38.1745 153.428 34.7227H140.928ZM145.128 8.77291L149.548 4.35349V4.35349L145.128 8.77291ZM28.1785 14.4727C24.7267 14.4727 21.9285 17.2709 21.9285 20.7227C21.9285 24.1744 24.7267 26.9727 28.1785 26.9727V14.4727ZM70.1785 26.9727C73.6302 26.9727 76.4285 24.1744 76.4285 20.7227C76.4285 17.2709 73.6302 14.4727 70.1785 14.4727V26.9727ZM11.5979 95.1421L44.7374 62.0026L35.8986 53.1637L2.75905 86.3032L11.5979 95.1421ZM55.0589 61.4309L69.8951 73.2999L77.7038 63.539L62.8676 51.67L55.0589 61.4309ZM97.6802 70.9407L144.85 17.8749L135.507 9.57038L88.3376 62.6361L97.6802 70.9407ZM69.8951 73.2999C72.218 75.1582 74.4315 76.9452 76.4417 78.1607C78.6062 79.4696 81.2603 80.5811 84.4828 80.3075L83.4253 67.8523C83.8642 67.815 83.898 68.0619 82.9096 67.4642C81.7669 66.7733 80.2949 65.6119 77.7038 63.539L69.8951 73.2999ZM88.3376 62.6361C86.1331 65.1162 84.878 66.5091 83.8681 67.3829C82.9947 68.1386 82.9864 67.8896 83.4253 67.8523L84.4829 80.3075C87.7054 80.0338 90.1341 78.4908 92.047 76.8357C93.8234 75.2987 95.7039 73.164 97.6802 70.9407L88.3376 62.6361ZM44.7374 62.0026C46.9621 59.7779 48.2177 58.5392 49.2147 57.7689C50.071 57.1072 50.0691 57.3309 49.6565 57.3538L48.9653 44.8729C45.8816 45.0437 43.4906 46.395 41.5718 47.8777C39.7938 49.2515 37.8885 51.1738 35.8986 53.1637L44.7374 62.0026ZM62.8676 51.67C60.6701 49.912 58.5642 48.2119 56.6453 47.0428C54.5745 45.7811 52.0489 44.7021 48.9652 44.8729L49.6565 57.3538C49.2439 57.3766 49.2173 57.1545 50.1414 57.7175C51.2174 58.3731 52.6021 59.4655 55.0589 61.4309L62.8676 51.67ZM119.178 12.9727H133.178V0.472656H119.178V12.9727ZM140.928 20.7227V34.7227H153.428V20.7227H140.928ZM133.178 12.9727C136.655 12.9727 138.634 12.9859 140.027 13.1732C141.24 13.3363 141.038 13.522 140.709 13.1923L149.548 4.35349C147.168 1.97356 144.291 1.13413 141.692 0.78467C139.273 0.459383 136.302 0.472656 133.178 0.472656V12.9727ZM153.428 20.7227C153.428 17.5995 153.442 14.6284 153.116 12.209C152.767 9.60971 151.928 6.73343 149.548 4.35349L140.709 13.1923C140.379 12.8626 140.565 12.6614 140.728 13.8745C140.915 15.2675 140.928 17.2461 140.928 20.7227H153.428ZM28.1785 26.9727H70.1785V14.4727H28.1785V26.9727Z" fill="#6F25F5" fill-opacity="0.8"/>
</svg>
