<svg width="261" height="101" viewBox="0 0 261 101" fill="none" xmlns="http://www.w3.org/2000/svg">
<path d="M54.5216 87.0658C51.3974 90.19 51.3974 95.2553 54.5216 98.3795C57.6458 101.504 62.7111 101.504 65.8353 98.3795L54.5216 87.0658ZM111.963 58.5505L106.966 64.7974L111.963 58.5505ZM126.799 70.4195L121.802 76.6664H121.802L126.799 70.4195ZM146.009 68.7884L140.03 63.4735L146.009 68.7884ZM199.158 21.0376C202.093 17.7353 201.796 12.6787 198.493 9.74338C195.191 6.80804 190.135 7.10548 187.199 10.4077L199.158 21.0376ZM136.954 76.0799L137.631 84.0512H137.631L136.954 76.0799ZM102.311 53.1133L102.753 61.1011H102.753L102.311 53.1133ZM172.178 0.722656C167.76 0.722656 164.178 4.30438 164.178 8.72266C164.178 13.1409 167.76 16.7227 172.178 16.7227V0.722656ZM192.178 36.7227C192.178 41.141 195.76 44.7227 200.178 44.7227C204.597 44.7227 208.178 41.141 208.178 36.7227H192.178ZM198.128 10.7729L203.785 5.11606L203.785 5.11605L198.128 10.7729ZM81.1785 14.7227C76.7602 14.7227 73.1785 18.3044 73.1785 22.7227C73.1785 27.1409 76.7602 30.7227 81.1785 30.7227V14.7227ZM123.178 30.7227C127.597 30.7227 131.178 27.1409 131.178 22.7227C131.178 18.3044 127.597 14.7227 123.178 14.7227V30.7227ZM65.8353 98.3795L98.9748 65.24L87.6611 53.9263L54.5216 87.0658L65.8353 98.3795ZM106.966 64.7974L121.802 76.6664L131.797 64.1725L116.961 52.3035L106.966 64.7974ZM151.988 74.1033L199.158 21.0376L187.199 10.4077L140.03 63.4735L151.988 74.1033ZM121.802 76.6664C124.087 78.4947 126.405 80.3693 128.536 81.6583C130.865 83.0667 133.896 84.3683 137.631 84.0512L136.277 68.1086C137.229 68.0278 137.639 68.4648 136.815 67.9667C135.794 67.3492 134.426 66.2754 131.797 64.1725L121.802 76.6664ZM140.03 63.4735C137.793 65.9895 136.626 67.2786 135.723 68.0595C134.995 68.6893 135.326 68.1894 136.277 68.1086L137.631 84.0512C141.366 83.734 144.134 81.9401 146.192 80.1591C148.076 78.5292 150.044 76.2907 151.988 74.1033L140.03 63.4735ZM98.9748 65.24C100.049 64.1662 100.896 63.3193 101.643 62.6074C102.393 61.8939 102.907 61.4454 103.285 61.1536C103.992 60.6069 103.655 61.0511 102.753 61.1011L101.868 45.1256C98.2953 45.3235 95.5693 46.8953 93.5018 48.4929C91.6144 49.9513 89.6182 51.9692 87.6611 53.9263L98.9748 65.24ZM116.961 52.3035C114.8 50.5746 112.593 48.7894 110.556 47.5483C108.325 46.1889 105.442 44.9277 101.868 45.1256L102.753 61.1011C101.851 61.1511 101.467 60.7468 102.231 61.212C102.638 61.4603 103.199 61.8492 104.023 62.4757C104.844 63.1006 105.78 63.8488 106.966 64.7974L116.961 52.3035ZM172.178 16.7227H186.178V0.722656H172.178V16.7227ZM192.178 22.7227V36.7227H208.178V22.7227H192.178ZM186.178 16.7227C189.704 16.7227 191.544 16.7396 192.793 16.9076C193.812 17.0446 193.18 17.1388 192.471 16.4298L203.785 5.11605C201.026 2.35678 197.719 1.42583 194.925 1.05028C192.362 0.705667 189.252 0.722656 186.178 0.722656V16.7227ZM208.178 22.7227C208.178 19.649 208.195 16.5389 207.851 13.9758C207.475 11.1825 206.544 7.87534 203.785 5.11606L192.471 16.4298C191.762 15.7207 191.857 15.0886 191.994 16.1077C192.161 17.357 192.178 19.1967 192.178 22.7227H208.178ZM81.1785 30.7227H123.178V14.7227H81.1785V30.7227Z" fill="#FFC100"/>
</svg>
